<svg id="visual" width="900" height="450" xmlns="http://www.w3.org/2000/svg" xmlns:xlink="http://www.w3.org/1999/xlink" version="1.1"><path d="M0 266L25 248.5C50 231 100 196 150 169.7C200 143.3 250 125.7 300 121.3C350 117 400 126 450 146.3C500 166.7 550 198.3 600 198.3C650 198.3 700 166.7 750 137.7C800 108.7 850 82.3 875 69.2L900 56L900 451L875 451C850 451 800 451 750 451C700 451 650 451 600 451C550 451 500 451 450 451C400 451 350 451 300 451C250 451 200 451 150 451C100 451 50 451 25 451L0 451Z" fill="#000000"></path><path d="M0 158L25 166.3C50 174.7 100 191.3 150 206.7C200 222 250 236 300 237C350 238 400 226 450 219.7C500 213.3 550 212.7 600 207.5C650 202.3 700 192.7 750 207.5C800 222.3 850 261.7 875 281.3L900 301L900 451L875 451C850 451 800 451 750 451C700 451 650 451 600 451C550 451 500 451 450 451C400 451 350 451 300 451C250 451 200 451 150 451C100 451 50 451 25 451L0 451Z" fill="#00013f"></path><path d="M0 349L25 347.5C50 346 100 343 150 320.5C200 298 250 256 300 252.2C350 248.3 400 282.7 450 296.5C500 310.3 550 303.7 600 292.2C650 280.7 700 264.3 750 262C800 259.7 850 271.3 875 277.2L900 283L900 451L875 451C850 451 800 451 750 451C700 451 650 451 600 451C550 451 500 451 450 451C400 451 350 451 300 451C250 451 200 451 150 451C100 451 50 451 25 451L0 451Z" fill="#010c47"></path><path d="M0 316L25 325.8C50 335.7 100 355.3 150 364.3C200 373.3 250 371.7 300 363C350 354.3 400 338.7 450 328.7C500 318.7 550 314.3 600 313.5C650 312.7 700 315.3 750 316.3C800 317.3 850 316.7 875 316.3L900 316L900 451L875 451C850 451 800 451 750 451C700 451 650 451 600 451C550 451 500 451 450 451C400 451 350 451 300 451C250 451 200 451 150 451C100 451 50 451 25 451L0 451Z" fill="#06134e"></path></svg>