<svg id="visual" width="900" height="900" xmlns="http://www.w3.org/2000/svg" xmlns:xlink="http://www.w3.org/1999/xlink" version="1.1"><g transform="translate(489.1388921662393 435.8179966132265)"><path d="M151.3 -209.2C188.3 -149.4 204.9 -94.2 241.1 -22.7C277.3 48.8 333.1 136.6 320.4 209.7C307.7 282.8 226.5 341.1 139.5 364.6C52.6 388.1 -40.2 376.8 -129.4 347.8C-218.6 318.7 -304.2 271.8 -352.7 198.4C-401.3 125.1 -412.9 25.1 -387.3 -59.4C-361.8 -143.9 -299.2 -212.9 -228.4 -266.7C-157.7 -320.6 -78.8 -359.3 -10.8 -346.4C57.2 -333.5 114.4 -269 151.3 -209.2" fill="#2d41b0"></path></g></svg>