<svg id="visual" width="900" height="450" xmlns="http://www.w3.org/2000/svg" xmlns:xlink="http://www.w3.org/1999/xlink" version="1.1"><path d="M0 363L25 368C50 373 100 383 150 367.7C200 352.3 250 311.7 300 293.8C350 276 400 281 450 289.5C500 298 550 310 600 298.5C650 287 700 252 750 263.8C800 275.7 850 334.3 875 363.7L900 393L900 0L875 0C850 0 800 0 750 0C700 0 650 0 600 0C550 0 500 0 450 0C400 0 350 0 300 0C250 0 200 0 150 0C100 0 50 0 25 0L0 0Z" fill="#1d202e"></path><path d="M0 266L25 248.7C50 231.3 100 196.7 150 188.8C200 181 250 200 300 217.3C350 234.7 400 250.3 450 267.3C500 284.3 550 302.7 600 288.5C650 274.3 700 227.7 750 225.3C800 223 850 265 875 286L900 307L900 0L875 0C850 0 800 0 750 0C700 0 650 0 600 0C550 0 500 0 450 0C400 0 350 0 300 0C250 0 200 0 150 0C100 0 50 0 25 0L0 0Z" fill="#372c4e"></path><path d="M0 132L25 153C50 174 100 216 150 221C200 226 250 194 300 190C350 186 400 210 450 210.7C500 211.3 550 188.7 600 175.2C650 161.7 700 157.3 750 168.2C800 179 850 205 875 218L900 231L900 0L875 0C850 0 800 0 750 0C700 0 650 0 600 0C550 0 500 0 450 0C400 0 350 0 300 0C250 0 200 0 150 0C100 0 50 0 25 0L0 0Z" fill="#613166"></path><path d="M0 179L25 166.3C50 153.7 100 128.3 150 124.5C200 120.7 250 138.3 300 147.2C350 156 400 156 450 162.3C500 168.7 550 181.3 600 172.8C650 164.3 700 134.7 750 122C800 109.3 850 113.7 875 115.8L900 118L900 0L875 0C850 0 800 0 750 0C700 0 650 0 600 0C550 0 500 0 450 0C400 0 350 0 300 0C250 0 200 0 150 0C100 0 50 0 25 0L0 0Z" fill="#942d6f"></path><path d="M0 52L25 50.8C50 49.7 100 47.3 150 48.2C200 49 250 53 300 49.5C350 46 400 35 450 30.2C500 25.3 550 26.7 600 30C650 33.3 700 38.7 750 39.5C800 40.3 850 36.7 875 34.8L900 33L900 0L875 0C850 0 800 0 750 0C700 0 650 0 600 0C550 0 500 0 450 0C400 0 350 0 300 0C250 0 200 0 150 0C100 0 50 0 25 0L0 0Z" fill="#c62368"></path></svg>