<svg id="visual" width="900" height="450" xmlns="http://www.w3.org/2000/svg" xmlns:xlink="http://www.w3.org/1999/xlink"
     version="1.1">
    <path d="M0 216L25 221.7C50 227.3 100 238.7 150 254.7C200 270.7 250 291.3 300 298.5C350 305.7 400 299.3 450 298C500 296.7 550 300.3 600 291C650 281.7 700 259.3 750 265.3C800 271.3 850 305.7 875 322.8L900 340L900 0L875 0C850 0 800 0 750 0C700 0 650 0 600 0C550 0 500 0 450 0C400 0 350 0 300 0C250 0 200 0 150 0C100 0 50 0 25 0L0 0Z"
          fill="#fa7268"></path>
    <path d="M0 274L25 265.8C50 257.7 100 241.3 150 234.7C200 228 250 231 300 219.2C350 207.3 400 180.7 450 171.7C500 162.7 550 171.3 600 194.3C650 217.3 700 254.7 750 251.8C800 249 850 206 875 184.5L900 163L900 0L875 0C850 0 800 0 750 0C700 0 650 0 600 0C550 0 500 0 450 0C400 0 350 0 300 0C250 0 200 0 150 0C100 0 50 0 25 0L0 0Z"
          fill="#eb5967"></path>
    <path d="M0 180L25 173.5C50 167 100 154 150 149.7C200 145.3 250 149.7 300 142.2C350 134.7 400 115.3 450 104.7C500 94 550 92 600 106.5C650 121 700 152 750 161.7C800 171.3 850 159.7 875 153.8L900 148L900 0L875 0C850 0 800 0 750 0C700 0 650 0 600 0C550 0 500 0 450 0C400 0 350 0 300 0C250 0 200 0 150 0C100 0 50 0 25 0L0 0Z"
          fill="#da3f67"></path>
    <path d="M0 59L25 55.8C50 52.7 100 46.3 150 52.5C200 58.7 250 77.3 300 83.3C350 89.3 400 82.7 450 89.5C500 96.3 550 116.7 600 110.8C650 105 700 73 750 61.5C800 50 850 59 875 63.5L900 68L900 0L875 0C850 0 800 0 750 0C700 0 650 0 600 0C550 0 500 0 450 0C400 0 350 0 300 0C250 0 200 0 150 0C100 0 50 0 25 0L0 0Z"
          fill="#c62368"></path>
</svg>