<svg id="visual" width="900" height="450" xmlns="http://www.w3.org/2000/svg" xmlns:xlink="http://www.w3.org/1999/xlink"
     version="1.1">
    <path d="M0 90L25 111.8C50 133.7 100 177.3 150 193.8C200 210.3 250 199.7 300 187.7C350 175.7 400 162.3 450 167.8C500 173.3 550 197.7 600 208C650 218.3 700 214.7 750 216.7C800 218.7 850 226.3 875 230.2L900 234L900 451L875 451C850 451 800 451 750 451C700 451 650 451 600 451C550 451 500 451 450 451C400 451 350 451 300 451C250 451 200 451 150 451C100 451 50 451 25 451L0 451Z"
          fill="#fa7268"></path>
    <path d="M0 239L25 233.2C50 227.3 100 215.7 150 224.2C200 232.7 250 261.3 300 252.8C350 244.3 400 198.7 450 184.5C500 170.3 550 187.7 600 192.2C650 196.7 700 188.3 750 195.5C800 202.7 850 225.3 875 236.7L900 248L900 451L875 451C850 451 800 451 750 451C700 451 650 451 600 451C550 451 500 451 450 451C400 451 350 451 300 451C250 451 200 451 150 451C100 451 50 451 25 451L0 451Z"
          fill="#eb5967"></path>
    <path d="M0 315L25 318.8C50 322.7 100 330.3 150 335.5C200 340.7 250 343.3 300 342.2C350 341 400 336 450 333.7C500 331.3 550 331.7 600 332.3C650 333 700 334 750 318.7C800 303.3 850 271.7 875 255.8L900 240L900 451L875 451C850 451 800 451 750 451C700 451 650 451 600 451C550 451 500 451 450 451C400 451 350 451 300 451C250 451 200 451 150 451C100 451 50 451 25 451L0 451Z"
          fill="#da3f67"></path>
    <path d="M0 338L25 340.7C50 343.3 100 348.7 150 352.5C200 356.3 250 358.7 300 363.5C350 368.3 400 375.7 450 379C500 382.3 550 381.7 600 372.8C650 364 700 347 750 348.5C800 350 850 370 875 380L900 390L900 451L875 451C850 451 800 451 750 451C700 451 650 451 600 451C550 451 500 451 450 451C400 451 350 451 300 451C250 451 200 451 150 451C100 451 50 451 25 451L0 451Z"
          fill="#c62368"></path>
</svg>