<svg id="visual" width="900" height="450" xmlns="http://www.w3.org/2000/svg" xmlns:xlink="http://www.w3.org/1999/xlink" version="1.1"><path d="M0 117L25 139.3C50 161.7 100 206.3 150 197.7C200 189 250 127 300 116.5C350 106 400 147 450 165.3C500 183.7 550 179.3 600 166.8C650 154.3 700 133.7 750 123.2C800 112.7 850 112.3 875 112.2L900 112L900 451L875 451C850 451 800 451 750 451C700 451 650 451 600 451C550 451 500 451 450 451C400 451 350 451 300 451C250 451 200 451 150 451C100 451 50 451 25 451L0 451Z" fill="#1d202e"></path><path d="M0 248L25 249C50 250 100 252 150 233.5C200 215 250 176 300 173C350 170 400 203 450 223C500 243 550 250 600 234.5C650 219 700 181 750 188.8C800 196.7 850 250.3 875 277.2L900 304L900 451L875 451C850 451 800 451 750 451C700 451 650 451 600 451C550 451 500 451 450 451C400 451 350 451 300 451C250 451 200 451 150 451C100 451 50 451 25 451L0 451Z" fill="#141825"></path><path d="M0 226L25 237C50 248 100 270 150 274.7C200 279.3 250 266.7 300 271.8C350 277 400 300 450 314.5C500 329 550 335 600 337.8C650 340.7 700 340.3 750 323.7C800 307 850 274 875 257.5L900 241L900 451L875 451C850 451 800 451 750 451C700 451 650 451 600 451C550 451 500 451 450 451C400 451 350 451 300 451C250 451 200 451 150 451C100 451 50 451 25 451L0 451Z" fill="#0b0d1d"></path><path d="M0 385L25 381.7C50 378.3 100 371.7 150 371C200 370.3 250 375.7 300 381C350 386.3 400 391.7 450 383.5C500 375.3 550 353.7 600 347.7C650 341.7 700 351.3 750 364.2C800 377 850 393 875 401L900 409L900 451L875 451C850 451 800 451 750 451C700 451 650 451 600 451C550 451 500 451 450 451C400 451 350 451 300 451C250 451 200 451 150 451C100 451 50 451 25 451L0 451Z" fill="#000000"></path></svg>