<svg id="visual" width="900" height="600" xmlns="http://www.w3.org/2000/svg" xmlns:xlink="http://www.w3.org/1999/xlink" version="1.1"><path d="M0 257L21.5 267.5C43 278 86 299 128.8 280C171.7 261 214.3 202 257.2 186.5C300 171 343 199 385.8 217.3C428.7 235.7 471.3 244.3 514.2 260.2C557 276 600 299 642.8 310.5C685.7 322 728.3 322 771.2 287.8C814 253.7 857 185.3 878.5 151.2L900 117L900 601L878.5 601C857 601 814 601 771.2 601C728.3 601 685.7 601 642.8 601C600 601 557 601 514.2 601C471.3 601 428.7 601 385.8 601C343 601 300 601 257.2 601C214.3 601 171.7 601 128.8 601C86 601 43 601 21.5 601L0 601Z" fill="#06134e"></path><path d="M0 230L21.5 254.7C43 279.3 86 328.7 128.8 343.8C171.7 359 214.3 340 257.2 337.2C300 334.3 343 347.7 385.8 348.7C428.7 349.7 471.3 338.3 514.2 337.3C557 336.3 600 345.7 642.8 355C685.7 364.3 728.3 373.7 771.2 351C814 328.3 857 273.7 878.5 246.3L900 219L900 601L878.5 601C857 601 814 601 771.2 601C728.3 601 685.7 601 642.8 601C600 601 557 601 514.2 601C471.3 601 428.7 601 385.8 601C343 601 300 601 257.2 601C214.3 601 171.7 601 128.8 601C86 601 43 601 21.5 601L0 601Z" fill="#001942"></path><path d="M0 374L21.5 361.2C43 348.3 86 322.7 128.8 307.2C171.7 291.7 214.3 286.3 257.2 302.7C300 319 343 357 385.8 363C428.7 369 471.3 343 514.2 330.7C557 318.3 600 319.7 642.8 332.3C685.7 345 728.3 369 771.2 381C814 393 857 393 878.5 393L900 393L900 601L878.5 601C857 601 814 601 771.2 601C728.3 601 685.7 601 642.8 601C600 601 557 601 514.2 601C471.3 601 428.7 601 385.8 601C343 601 300 601 257.2 601C214.3 601 171.7 601 128.8 601C86 601 43 601 21.5 601L0 601Z" fill="#001a31"></path><path d="M0 388L21.5 399.8C43 411.7 86 435.3 128.8 448.8C171.7 462.3 214.3 465.7 257.2 458.8C300 452 343 435 385.8 422.2C428.7 409.3 471.3 400.7 514.2 409C557 417.3 600 442.7 642.8 454.5C685.7 466.3 728.3 464.7 771.2 457.8C814 451 857 439 878.5 433L900 427L900 601L878.5 601C857 601 814 601 771.2 601C728.3 601 685.7 601 642.8 601C600 601 557 601 514.2 601C471.3 601 428.7 601 385.8 601C343 601 300 601 257.2 601C214.3 601 171.7 601 128.8 601C86 601 43 601 21.5 601L0 601Z" fill="#00171f"></path><path d="M0 458L21.5 460.5C43 463 86 468 128.8 468.2C171.7 468.3 214.3 463.7 257.2 468C300 472.3 343 485.7 385.8 486.5C428.7 487.3 471.3 475.7 514.2 472.2C557 468.7 600 473.3 642.8 480C685.7 486.7 728.3 495.3 771.2 502.3C814 509.3 857 514.7 878.5 517.3L900 520L900 601L878.5 601C857 601 814 601 771.2 601C728.3 601 685.7 601 642.8 601C600 601 557 601 514.2 601C471.3 601 428.7 601 385.8 601C343 601 300 601 257.2 601C214.3 601 171.7 601 128.8 601C86 601 43 601 21.5 601L0 601Z" fill="#00100f"></path></svg>