<svg id="visual" width="960" height="540" xmlns="http://www.w3.org/2000/svg" xmlns:xlink="http://www.w3.org/1999/xlink" version="1.1"><path d="M0 378L20 363.3C40 348.7 80 319.3 120 317.7C160 316 200 342 240 347.2C280 352.3 320 336.7 360 340.8C400 345 440 369 480 371.8C520 374.7 560 356.3 600 351.2C640 346 680 354 720 354.3C760 354.7 800 347.3 840 361.5C880 375.7 920 411.3 940 429.2L960 447L960 0L940 0C920 0 880 0 840 0C800 0 760 0 720 0C680 0 640 0 600 0C560 0 520 0 480 0C440 0 400 0 360 0C320 0 280 0 240 0C200 0 160 0 120 0C80 0 40 0 20 0L0 0Z" fill="#1d202e"></path><path d="M0 327L20 317.7C40 308.3 80 289.7 120 292.3C160 295 200 319 240 315.2C280 311.3 320 279.7 360 264C400 248.3 440 248.7 480 254.7C520 260.7 560 272.3 600 277.7C640 283 680 282 720 277C760 272 800 263 840 266C880 269 920 284 940 291.5L960 299L960 0L940 0C920 0 880 0 840 0C800 0 760 0 720 0C680 0 640 0 600 0C560 0 520 0 480 0C440 0 400 0 360 0C320 0 280 0 240 0C200 0 160 0 120 0C80 0 40 0 20 0L0 0Z" fill="#121d28"></path><path d="M0 274L20 262C40 250 80 226 120 221.8C160 217.7 200 233.3 240 236C280 238.7 320 228.3 360 229.2C400 230 440 242 480 236.5C520 231 560 208 600 203.5C640 199 680 213 720 210.2C760 207.3 800 187.7 840 183.2C880 178.7 920 189.3 940 194.7L960 200L960 0L940 0C920 0 880 0 840 0C800 0 760 0 720 0C680 0 640 0 600 0C560 0 520 0 480 0C440 0 400 0 360 0C320 0 280 0 240 0C200 0 160 0 120 0C80 0 40 0 20 0L0 0Z" fill="#0b1a20"></path><path d="M0 102L20 110.8C40 119.7 80 137.3 120 153.5C160 169.7 200 184.3 240 185.3C280 186.3 320 173.7 360 175.5C400 177.3 440 193.7 480 189.8C520 186 560 162 600 149.7C640 137.3 680 136.7 720 148.2C760 159.7 800 183.3 840 180.3C880 177.3 920 147.7 940 132.8L960 118L960 0L940 0C920 0 880 0 840 0C800 0 760 0 720 0C680 0 640 0 600 0C560 0 520 0 480 0C440 0 400 0 360 0C320 0 280 0 240 0C200 0 160 0 120 0C80 0 40 0 20 0L0 0Z" fill="#051618"></path><path d="M0 51L20 61.2C40 71.3 80 91.7 120 102.8C160 114 200 116 240 105.5C280 95 320 72 360 70.7C400 69.3 440 89.7 480 97.5C520 105.3 560 100.7 600 104C640 107.3 680 118.7 720 111.3C760 104 800 78 840 71C880 64 920 76 940 82L960 88L960 0L940 0C920 0 880 0 840 0C800 0 760 0 720 0C680 0 640 0 600 0C560 0 520 0 480 0C440 0 400 0 360 0C320 0 280 0 240 0C200 0 160 0 120 0C80 0 40 0 20 0L0 0Z" fill="#00100f"></path></svg>